<svg width="16" height="16" viewBox="0 0 16 16" fill="none" xmlns="http://www.w3.org/2000/svg">
<path d="M10.6719 10C10.6719 9.20435 10.3558 8.44129 9.7932 7.87868C9.23059 7.31607 8.46752 7 7.67188 7C6.87623 7 6.11316 7.31607 5.55055 7.87868C4.98795 8.44129 4.67188 9.20435 4.67188 10L5.17188 9.5C4.50883 9.5 3.87295 9.76339 3.40411 10.2322C2.93527 10.7011 2.67188 11.337 2.67188 12C2.67188 12.663 2.93527 13.2989 3.40411 13.7678C3.87295 14.2366 4.50883 14.5 5.17188 14.5C5.69485 14.4891 6.20779 14.3543 6.66854 14.1067C6.97963 13.9459 7.32479 13.8623 7.67495 13.8629C8.0251 13.8635 8.36999 13.9482 8.68054 14.11C9.13188 14.3533 9.64054 14.488 10.1605 14.5C10.4888 14.5008 10.8141 14.4369 11.1177 14.312C11.4213 14.1871 11.6974 14.0036 11.9301 13.772C12.1628 13.5404 12.3476 13.2653 12.4739 12.9623C12.6003 12.6592 12.6658 12.3343 12.6665 12.006C12.6673 11.6777 12.6034 11.3525 12.4785 11.0488C12.3536 10.7452 12.1701 10.4692 11.9386 10.2365C11.707 10.0038 11.4318 9.81896 11.1288 9.6926C10.8258 9.56623 10.5008 9.50079 10.1725 9.5L10.6719 10ZM9.67188 10C9.67188 10.276 9.89587 10.5 10.1719 10.5C10.5697 10.5 10.9512 10.658 11.2325 10.9393C11.5138 11.2206 11.6719 11.6022 11.6719 12C11.6719 12.3978 11.5138 12.7794 11.2325 13.0607C10.9512 13.342 10.5697 13.5 10.1719 13.5C9.81386 13.4902 9.46314 13.3966 9.14787 13.2267C8.69315 12.9893 8.1879 12.865 7.67495 12.8645C7.162 12.8639 6.65647 12.987 6.20121 13.2233C5.88083 13.3965 5.52397 13.4914 5.15988 13.5C4.76397 13.4974 4.38521 13.3381 4.10638 13.057C3.82756 12.7759 3.67134 12.3959 3.67188 12C3.67188 11.6022 3.82991 11.2206 4.11122 10.9393C4.39252 10.658 4.77405 10.5 5.17188 10.5C5.30448 10.5 5.43166 10.4473 5.52543 10.3536C5.6192 10.2598 5.67188 10.1326 5.67188 10C5.67188 9.73736 5.72361 9.47728 5.82412 9.23463C5.92463 8.99198 6.07194 8.7715 6.25766 8.58579C6.44338 8.40007 6.66386 8.25275 6.90651 8.15224C7.14916 8.05173 7.40923 8 7.67188 8C7.93452 8 8.19459 8.05173 8.43724 8.15224C8.67989 8.25275 8.90037 8.40007 9.08609 8.58579C9.27181 8.7715 9.41912 8.99198 9.51963 9.23463C9.62014 9.47728 9.67188 9.73736 9.67188 10ZM3.17188 7.5C3.17188 7.76522 3.06652 8.01957 2.87898 8.20711C2.69145 8.39464 2.43709 8.5 2.17188 8.5C1.90666 8.5 1.6523 8.39464 1.46477 8.20711C1.27723 8.01957 1.17188 7.76522 1.17188 7.5C1.17188 7.23478 1.27723 6.98043 1.46477 6.79289C1.6523 6.60536 1.90666 6.5 2.17188 6.5C2.43709 6.5 2.69145 6.60536 2.87898 6.79289C3.06652 6.98043 3.17188 7.23478 3.17188 7.5ZM4.17188 7.5C4.17188 7.23736 4.12014 6.97728 4.01963 6.73463C3.91912 6.49198 3.77181 6.2715 3.58609 6.08579C3.40037 5.90007 3.17989 5.75275 2.93724 5.65224C2.69459 5.55173 2.43452 5.5 2.17188 5.5C1.90923 5.5 1.64916 5.55173 1.40651 5.65224C1.16386 5.75275 0.943379 5.90007 0.757661 6.08579C0.571944 6.2715 0.424625 6.49198 0.324116 6.73463C0.223607 6.97728 0.171875 7.23736 0.171875 7.5C0.171875 8.03043 0.382589 8.53914 0.757661 8.91421C1.13273 9.28929 1.64144 9.5 2.17188 9.5C2.70231 9.5 3.21102 9.28929 3.58609 8.91421C3.96116 8.53914 4.17188 8.03043 4.17188 7.5ZM6.17188 3.5C6.17188 3.76522 6.06652 4.01957 5.87898 4.20711C5.69145 4.39464 5.43709 4.5 5.17188 4.5C4.90666 4.5 4.6523 4.39464 4.46477 4.20711C4.27723 4.01957 4.17188 3.76522 4.17188 3.5C4.17188 3.23478 4.27723 2.98043 4.46477 2.79289C4.6523 2.60536 4.90666 2.5 5.17188 2.5C5.43709 2.5 5.69145 2.60536 5.87898 2.79289C6.06652 2.98043 6.17188 3.23478 6.17188 3.5ZM7.17188 3.5C7.17188 3.23736 7.12014 2.97728 7.01963 2.73463C6.91912 2.49198 6.77181 2.2715 6.58609 2.08579C6.40037 1.90007 6.17989 1.75275 5.93724 1.65224C5.69459 1.55173 5.43452 1.5 5.17188 1.5C4.90923 1.5 4.64916 1.55173 4.40651 1.65224C4.16386 1.75275 3.94338 1.90007 3.75766 2.08579C3.57194 2.2715 3.42463 2.49198 3.32412 2.73463C3.22361 2.97728 3.17188 3.23736 3.17188 3.5C3.17188 4.03043 3.38259 4.53914 3.75766 4.91421C4.13273 5.28929 4.64144 5.5 5.17188 5.5C5.70231 5.5 6.21102 5.28929 6.58609 4.91421C6.96116 4.53914 7.17188 4.03043 7.17188 3.5ZM11.1719 3.5C11.1719 3.76522 11.0665 4.01957 10.879 4.20711C10.6914 4.39464 10.4371 4.5 10.1719 4.5C9.90666 4.5 9.6523 4.39464 9.46477 4.20711C9.27723 4.01957 9.17188 3.76522 9.17188 3.5C9.17188 3.23478 9.27723 2.98043 9.46477 2.79289C9.6523 2.60536 9.90666 2.5 10.1719 2.5C10.4371 2.5 10.6914 2.60536 10.879 2.79289C11.0665 2.98043 11.1719 3.23478 11.1719 3.5ZM12.1719 3.5C12.1719 2.96957 11.9612 2.46086 11.5861 2.08579C11.211 1.71071 10.7023 1.5 10.1719 1.5C9.64144 1.5 9.13273 1.71071 8.75766 2.08579C8.38259 2.46086 8.17188 2.96957 8.17188 3.5C8.17188 4.03043 8.38259 4.53914 8.75766 4.91421C9.13273 5.28929 9.64144 5.5 10.1719 5.5C10.7023 5.5 11.211 5.28929 11.5861 4.91421C11.9612 4.53914 12.1719 4.03043 12.1719 3.5ZM14.6719 7.5C14.6719 7.76522 14.5665 8.01957 14.379 8.20711C14.1914 8.39464 13.9371 8.5 13.6719 8.5C13.4067 8.5 13.1523 8.39464 12.9648 8.20711C12.7772 8.01957 12.6719 7.76522 12.6719 7.5C12.6719 7.23478 12.7772 6.98043 12.9648 6.79289C13.1523 6.60536 13.4067 6.5 13.6719 6.5C13.9371 6.5 14.1914 6.60536 14.379 6.79289C14.5665 6.98043 14.6719 7.23478 14.6719 7.5ZM15.6719 7.5C15.6719 6.96957 15.4612 6.46086 15.0861 6.08579C14.711 5.71071 14.2023 5.5 13.6719 5.5C13.1414 5.5 12.6327 5.71071 12.2577 6.08579C11.8826 6.46086 11.6719 6.96957 11.6719 7.5C11.6719 8.03043 11.8826 8.53914 12.2577 8.91421C12.6327 9.28929 13.1414 9.5 13.6719 9.5C14.2023 9.5 14.711 9.28929 15.0861 8.91421C15.4612 8.53914 15.6719 8.03043 15.6719 7.5Z" fill="black"/>
</svg>
